<svg xmlns="http://www.w3.org/2000/svg" viewBox="-20 -644.942 1215.52 250.223" role="img" aria-label="APEZONE — Arena">
  <defs><path id="arena-p" fill-rule="evenodd" d="M 133.53 -465.55 L 95.85 -465.55 L 66.76 -533.25 L 37.68 -465.55 L 0 -465.55 L 66.76 -620.94 L 133.53 -465.55 Z M 225.75 -582.85 L 225.75 -555.34 C 236.37 -550.33 255.08 -558.09 254.29 -571.11 C 250.61 -582.44 235.65 -583.94 225.75 -582.85 Z M 225.75 -524.82 L 225.75 -465.55 L 189.7 -465.55 L 189.7 -614.38 C 214.64 -613.2 251.27 -621.11 272.92 -600.88 C 282.24 -592.94 286.2 -580.31 285.2 -568.34 C 285.34 -557.29 281.04 -546.27 273.29 -538.37 C 261.44 -525.54 242.28 -522.84 225.75 -524.82 Z M 436.47 -465.55 L 345.23 -465.55 L 345.23 -614.25 L 436.47 -614.25 L 436.47 -582.67 L 380.93 -582.67 L 380.93 -555.96 L 436.47 -555.96 L 436.47 -525.09 L 380.93 -525.09 L 380.93 -497.13 L 436.47 -497.13 L 436.47 -465.55 Z M 612.55 -598.83 L 545.91 -496.42 L 611.78 -496.42 L 611.78 -465.55 L 495.52 -465.55 L 495.53 -479.36 L 562.63 -583.38 L 506.35 -583.38 L 506.35 -614.25 L 612.42 -614.25 L 612.55 -598.83 Z M 825.08 -539.9 C 826.18 -498.66 789.13 -461.62 747.9 -462.72 C 706.66 -461.62 669.62 -498.66 670.72 -539.9 C 669.62 -581.14 706.66 -618.18 747.9 -617.08 C 789.13 -618.18 826.18 -581.14 825.08 -539.9 Z M 789.39 -539.9 C 790.14 -562.79 771.89 -586.5 747.9 -586.21 C 723.9 -586.5 705.65 -562.79 706.41 -539.9 C 705.65 -517.01 723.9 -493.3 747.9 -493.59 C 771.89 -493.3 790.14 -517.01 789.39 -539.9 Z M 1018.29 -465.55 L 1000.34 -465.55 L 919.27 -551.89 L 919.27 -465.55 L 884.64 -465.55 L 884.64 -614.25 L 903.15 -614.25 L 983.3 -528.33 L 983.3 -614.25 L 1018.29 -614.25 L 1018.29 -465.55 Z M 1175.52 -465.55 L 1084.29 -465.55 L 1084.29 -614.25 L 1175.52 -614.25 L 1175.52 -582.67 L 1119.98 -582.67 L 1119.98 -555.96 L 1175.52 -555.96 L 1175.52 -525.09 L 1119.98 -525.09 L 1119.98 -497.13 L 1175.52 -497.13 L 1175.52 -465.55 Z"/><path id="arena-l0" fill-rule="evenodd" d="M 133.53 -465.55 L 95.85 -465.55 L 66.76 -533.25 L 37.68 -465.55 L 0 -465.55 L 66.76 -620.94 L 133.53 -465.55 Z "/><path id="arena-l1" fill-rule="evenodd" d="M 225.75 -582.85 L 225.75 -555.34 C 236.37 -550.33 255.08 -558.09 254.29 -571.11 C 250.61 -582.44 235.65 -583.94 225.75 -582.85 Z  M 225.75 -524.82 L 225.75 -465.55 L 189.7 -465.55 L 189.7 -614.38 C 214.64 -613.2 251.27 -621.11 272.92 -600.88 C 282.24 -592.94 286.2 -580.31 285.2 -568.34 C 285.34 -557.29 281.04 -546.27 273.29 -538.37 C 261.44 -525.54 242.28 -522.84 225.75 -524.82 Z "/><path id="arena-l2" fill-rule="evenodd" d="M 436.47 -465.55 L 345.23 -465.55 L 345.23 -614.25 L 436.47 -614.25 L 436.47 -582.67 L 380.93 -582.67 L 380.93 -555.96 L 436.47 -555.96 L 436.47 -525.09 L 380.93 -525.09 L 380.93 -497.13 L 436.47 -497.13 L 436.47 -465.55 Z "/><path id="arena-l3" fill-rule="evenodd" d="M 612.55 -598.83 L 545.91 -496.42 L 611.78 -496.42 L 611.78 -465.55 L 495.52 -465.55 L 495.53 -479.36 L 562.63 -583.38 L 506.35 -583.38 L 506.35 -614.25 L 612.42 -614.25 L 612.55 -598.83 Z "/><path id="arena-l4" fill-rule="evenodd" d="M 825.08 -539.9 C 826.18 -498.66 789.13 -461.62 747.9 -462.72 C 706.66 -461.62 669.62 -498.66 670.72 -539.9 C 669.62 -581.14 706.66 -618.18 747.9 -617.08 C 789.13 -618.18 826.18 -581.14 825.08 -539.9 Z  M 789.39 -539.9 C 790.14 -562.79 771.89 -586.5 747.9 -586.21 C 723.9 -586.5 705.65 -562.79 706.41 -539.9 C 705.65 -517.01 723.9 -493.3 747.9 -493.59 C 771.89 -493.3 790.14 -517.01 789.39 -539.9 Z "/><path id="arena-l5" fill-rule="evenodd" d="M 1018.29 -465.55 L 1000.34 -465.55 L 919.27 -551.89 L 919.27 -465.55 L 884.64 -465.55 L 884.64 -614.25 L 903.15 -614.25 L 983.3 -528.33 L 983.3 -614.25 L 1018.29 -614.25 L 1018.29 -465.55 Z "/><path id="arena-l6" fill-rule="evenodd" d="M 1175.52 -465.55 L 1084.29 -465.55 L 1084.29 -614.25 L 1175.52 -614.25 L 1175.52 -582.67 L 1119.98 -582.67 L 1119.98 -555.96 L 1175.52 -555.96 L 1175.52 -525.09 L 1119.98 -525.09 L 1119.98 -497.13 L 1175.52 -497.13 L 1175.52 -465.55 Z"/>
    <linearGradient id="arena-g" x1="0" y1="0" x2="0" y2="1">
      <stop offset="0"    stop-color="#FAFDFE"/>
      <stop offset=".2"   stop-color="#AFC2CC"/>
      <stop offset=".46"  stop-color="#101A21"/>
      <stop offset=".52"  stop-color="#4A6472"/>
      <stop offset=".66"  stop-color="#EDF4F7"/>
      <stop offset=".84"  stop-color="#758B98"/>
      <stop offset="1"    stop-color="#2E3E48"/>
    </linearGradient>
  </defs>
  <rect x="-20" y="-644.942" width="1215.52" height="250.223" fill="#0A1116"/>
    <use href="#arena-p" transform="translate(587.76 154.45) scale(0.7110) translate(-587.76 -154.45) translate(0 54.40)" fill="#101B22"/>
    <use href="#arena-p" transform="translate(587.76 154.45) scale(0.7195) translate(-587.76 -154.45) translate(0 52.80)" fill="#111D24"/>
    <use href="#arena-p" transform="translate(587.76 154.45) scale(0.7280) translate(-587.76 -154.45) translate(0 51.20)" fill="#131E26"/>
    <use href="#arena-p" transform="translate(587.76 154.45) scale(0.7365) translate(-587.76 -154.45) translate(0 49.60)" fill="#142027"/>
    <use href="#arena-p" transform="translate(587.76 154.45) scale(0.7450) translate(-587.76 -154.45) translate(0 48.00)" fill="#162129"/>
    <use href="#arena-p" transform="translate(587.76 154.45) scale(0.7535) translate(-587.76 -154.45) translate(0 46.40)" fill="#17232B"/>
    <use href="#arena-p" transform="translate(587.76 154.45) scale(0.7620) translate(-587.76 -154.45) translate(0 44.80)" fill="#18252D"/>
    <use href="#arena-p" transform="translate(587.76 154.45) scale(0.7705) translate(-587.76 -154.45) translate(0 43.20)" fill="#1A262F"/>
    <use href="#arena-p" transform="translate(587.76 154.45) scale(0.7790) translate(-587.76 -154.45) translate(0 41.60)" fill="#1B2831"/>
    <use href="#arena-p" transform="translate(587.76 154.45) scale(0.7875) translate(-587.76 -154.45) translate(0 40.00)" fill="#1C2A32"/>
    <use href="#arena-p" transform="translate(587.76 154.45) scale(0.7960) translate(-587.76 -154.45) translate(0 38.40)" fill="#1E2B34"/>
    <use href="#arena-p" transform="translate(587.76 154.45) scale(0.8045) translate(-587.76 -154.45) translate(0 36.80)" fill="#1F2D36"/>
    <use href="#arena-p" transform="translate(587.76 154.45) scale(0.8130) translate(-587.76 -154.45) translate(0 35.20)" fill="#212E38"/>
    <use href="#arena-p" transform="translate(587.76 154.45) scale(0.8215) translate(-587.76 -154.45) translate(0 33.60)" fill="#22303A"/>
    <use href="#arena-p" transform="translate(587.76 154.45) scale(0.8300) translate(-587.76 -154.45) translate(0 32.00)" fill="#23323C"/>
    <use href="#arena-p" transform="translate(587.76 154.45) scale(0.8385) translate(-587.76 -154.45) translate(0 30.40)" fill="#25333D"/>
    <use href="#arena-p" transform="translate(587.76 154.45) scale(0.8470) translate(-587.76 -154.45) translate(0 28.80)" fill="#26353F"/>
    <use href="#arena-p" transform="translate(587.76 154.45) scale(0.8555) translate(-587.76 -154.45) translate(0 27.20)" fill="#283641"/>
    <use href="#arena-p" transform="translate(587.76 154.45) scale(0.8640) translate(-587.76 -154.45) translate(0 25.60)" fill="#293843"/>
    <use href="#arena-p" transform="translate(587.76 154.45) scale(0.8725) translate(-587.76 -154.45) translate(0 24.00)" fill="#2A3A45"/>
    <use href="#arena-p" transform="translate(587.76 154.45) scale(0.8810) translate(-587.76 -154.45) translate(0 22.40)" fill="#2C3B46"/>
    <use href="#arena-p" transform="translate(587.76 154.45) scale(0.8895) translate(-587.76 -154.45) translate(0 20.80)" fill="#2D3D48"/>
    <use href="#arena-p" transform="translate(587.76 154.45) scale(0.8980) translate(-587.76 -154.45) translate(0 19.20)" fill="#2E3F4A"/>
    <use href="#arena-p" transform="translate(587.76 154.45) scale(0.9065) translate(-587.76 -154.45) translate(0 17.60)" fill="#30404C"/>
    <use href="#arena-p" transform="translate(587.76 154.45) scale(0.9150) translate(-587.76 -154.45) translate(0 16.00)" fill="#31424E"/>
    <use href="#arena-p" transform="translate(587.76 154.45) scale(0.9235) translate(-587.76 -154.45) translate(0 14.40)" fill="#334350"/>
    <use href="#arena-p" transform="translate(587.76 154.45) scale(0.9320) translate(-587.76 -154.45) translate(0 12.80)" fill="#344551"/>
    <use href="#arena-p" transform="translate(587.76 154.45) scale(0.9405) translate(-587.76 -154.45) translate(0 11.20)" fill="#354753"/>
    <use href="#arena-p" transform="translate(587.76 154.45) scale(0.9490) translate(-587.76 -154.45) translate(0 9.60)" fill="#374855"/>
    <use href="#arena-p" transform="translate(587.76 154.45) scale(0.9575) translate(-587.76 -154.45) translate(0 8.00)" fill="#384A57"/>
    <use href="#arena-p" transform="translate(587.76 154.45) scale(0.9660) translate(-587.76 -154.45) translate(0 6.40)" fill="#394C59"/>
    <use href="#arena-p" transform="translate(587.76 154.45) scale(0.9745) translate(-587.76 -154.45) translate(0 4.80)" fill="#3B4D5B"/>
    <use href="#arena-p" transform="translate(587.76 154.45) scale(0.9830) translate(-587.76 -154.45) translate(0 3.20)" fill="#3C4F5C"/>
    <use href="#arena-p" transform="translate(587.76 154.45) scale(0.9915) translate(-587.76 -154.45) translate(0 1.60)" fill="#3E505E"/>
    <use href="#arena-p" fill="url(#arena-g)"/>
</svg>