<svg xmlns="http://www.w3.org/2000/svg" viewBox="-29.0 -664.8 1251.0 266.9" role="img" aria-label="APEZONE — Stomp">
  <defs><path id="stomp-p" fill-rule="evenodd" d="M 133.53 -465.55 L 95.85 -465.55 L 66.76 -533.25 L 37.68 -465.55 L 0 -465.55 L 66.76 -620.94 L 133.53 -465.55 Z M 225.75 -582.85 L 225.75 -555.34 C 236.37 -550.33 255.08 -558.09 254.29 -571.11 C 250.61 -582.44 235.65 -583.94 225.75 -582.85 Z M 225.75 -524.82 L 225.75 -465.55 L 189.7 -465.55 L 189.7 -614.38 C 214.64 -613.2 251.27 -621.11 272.92 -600.88 C 282.24 -592.94 286.2 -580.31 285.2 -568.34 C 285.34 -557.29 281.04 -546.27 273.29 -538.37 C 261.44 -525.54 242.28 -522.84 225.75 -524.82 Z M 436.47 -465.55 L 345.23 -465.55 L 345.23 -614.25 L 436.47 -614.25 L 436.47 -582.67 L 380.93 -582.67 L 380.93 -561.19 L 436.47 -561.19 L 436.47 -530.32 L 380.93 -530.32 L 380.93 -497.13 L 436.47 -497.13 L 436.47 -465.55 Z M 612.55 -598.83 L 545.91 -496.42 L 611.78 -496.42 L 611.78 -465.55 L 495.52 -465.55 L 495.53 -479.36 L 562.63 -583.38 L 506.35 -583.38 L 506.35 -614.25 L 612.42 -614.25 L 612.55 -598.83 Z M 825.08 -539.9 C 826.18 -498.66 789.13 -461.62 747.9 -462.72 C 706.66 -461.62 669.62 -498.66 670.72 -539.9 C 669.62 -581.14 706.66 -618.18 747.9 -617.08 C 789.13 -618.18 826.18 -581.14 825.08 -539.9 Z M 789.39 -539.9 C 790.14 -562.79 771.89 -586.5 747.9 -586.21 C 723.9 -586.5 705.65 -562.79 706.41 -539.9 C 705.65 -517.01 723.9 -493.3 747.9 -493.59 C 771.89 -493.3 790.14 -517.01 789.39 -539.9 Z M 1018.29 -465.55 L 1000.34 -465.55 L 919.27 -551.89 L 919.27 -465.55 L 884.64 -465.55 L 884.64 -614.25 L 903.15 -614.25 L 983.3 -528.33 L 983.3 -614.25 L 1018.29 -614.25 L 1018.29 -465.55 Z M 1175.52 -465.55 L 1084.29 -465.55 L 1084.29 -614.25 L 1175.52 -614.25 L 1175.52 -582.67 L 1119.98 -582.67 L 1119.98 -561.19 L 1175.52 -561.19 L 1175.52 -530.32 L 1119.98 -530.32 L 1119.98 -497.13 L 1175.52 -497.13 L 1175.52 -465.55 Z"/><path id="stomp-l0" fill-rule="evenodd" d="M 133.53 -465.55 L 95.85 -465.55 L 66.76 -533.25 L 37.68 -465.55 L 0 -465.55 L 66.76 -620.94 L 133.53 -465.55 Z "/><path id="stomp-l1" fill-rule="evenodd" d="M 225.75 -582.85 L 225.75 -555.34 C 236.37 -550.33 255.08 -558.09 254.29 -571.11 C 250.61 -582.44 235.65 -583.94 225.75 -582.85 Z  M 225.75 -524.82 L 225.75 -465.55 L 189.7 -465.55 L 189.7 -614.38 C 214.64 -613.2 251.27 -621.11 272.92 -600.88 C 282.24 -592.94 286.2 -580.31 285.2 -568.34 C 285.34 -557.29 281.04 -546.27 273.29 -538.37 C 261.44 -525.54 242.28 -522.84 225.75 -524.82 Z "/><path id="stomp-l2" fill-rule="evenodd" d="M 436.47 -465.55 L 345.23 -465.55 L 345.23 -614.25 L 436.47 -614.25 L 436.47 -582.67 L 380.93 -582.67 L 380.93 -561.19 L 436.47 -561.19 L 436.47 -530.32 L 380.93 -530.32 L 380.93 -497.13 L 436.47 -497.13 L 436.47 -465.55 Z "/><path id="stomp-l3" fill-rule="evenodd" d="M 612.55 -598.83 L 545.91 -496.42 L 611.78 -496.42 L 611.78 -465.55 L 495.52 -465.55 L 495.53 -479.36 L 562.63 -583.38 L 506.35 -583.38 L 506.35 -614.25 L 612.42 -614.25 L 612.55 -598.83 Z "/><path id="stomp-l4" fill-rule="evenodd" d="M 825.08 -539.9 C 826.18 -498.66 789.13 -461.62 747.9 -462.72 C 706.66 -461.62 669.62 -498.66 670.72 -539.9 C 669.62 -581.14 706.66 -618.18 747.9 -617.08 C 789.13 -618.18 826.18 -581.14 825.08 -539.9 Z  M 789.39 -539.9 C 790.14 -562.79 771.89 -586.5 747.9 -586.21 C 723.9 -586.5 705.65 -562.79 706.41 -539.9 C 705.65 -517.01 723.9 -493.3 747.9 -493.59 C 771.89 -493.3 790.14 -517.01 789.39 -539.9 Z "/><path id="stomp-l5" fill-rule="evenodd" d="M 1018.29 -465.55 L 1000.34 -465.55 L 919.27 -551.89 L 919.27 -465.55 L 884.64 -465.55 L 884.64 -614.25 L 903.15 -614.25 L 983.3 -528.33 L 983.3 -614.25 L 1018.29 -614.25 L 1018.29 -465.55 Z "/><path id="stomp-l6" fill-rule="evenodd" d="M 1175.52 -465.55 L 1084.29 -465.55 L 1084.29 -614.25 L 1175.52 -614.25 L 1175.52 -582.67 L 1119.98 -582.67 L 1119.98 -561.19 L 1175.52 -561.19 L 1175.52 -530.32 L 1119.98 -530.32 L 1119.98 -497.13 L 1175.52 -497.13 L 1175.52 -465.55 Z"/>
  </defs>
  <rect x="-29" y="-664.8" width="1251" height="266.9" fill="#0A1116"/>
    <g transform="translate(0.04 -15.91) rotate(-5.41 66.77 -543.25)"><use href="#stomp-l0" transform="translate(22.00 22.00)" fill="#1B2830"/><use href="#stomp-l0" transform="translate(21.00 21.00)" fill="#1E2B34"/><use href="#stomp-l0" transform="translate(20.00 20.00)" fill="#212F38"/><use href="#stomp-l0" transform="translate(19.00 19.00)" fill="#24323C"/><use href="#stomp-l0" transform="translate(18.00 18.00)" fill="#27363F"/><use href="#stomp-l0" transform="translate(17.00 17.00)" fill="#2A3943"/><use href="#stomp-l0" transform="translate(16.00 16.00)" fill="#2C3C47"/><use href="#stomp-l0" transform="translate(15.00 15.00)" fill="#2F404B"/><use href="#stomp-l0" transform="translate(14.00 14.00)" fill="#32434F"/><use href="#stomp-l0" transform="translate(13.00 13.00)" fill="#354753"/><use href="#stomp-l0" transform="translate(12.00 12.00)" fill="#384A57"/><use href="#stomp-l0" transform="translate(11.00 11.00)" fill="#3B4E5A"/><use href="#stomp-l0" transform="translate(10.00 10.00)" fill="#3E515E"/><use href="#stomp-l0" transform="translate(9.00 9.00)" fill="#415462"/><use href="#stomp-l0" transform="translate(8.00 8.00)" fill="#445866"/><use href="#stomp-l0" transform="translate(7.00 7.00)" fill="#475B6A"/><use href="#stomp-l0" transform="translate(6.00 6.00)" fill="#4A5F6E"/><use href="#stomp-l0" transform="translate(5.00 5.00)" fill="#4C6272"/><use href="#stomp-l0" transform="translate(4.00 4.00)" fill="#4F6576"/><use href="#stomp-l0" transform="translate(3.00 3.00)" fill="#526979"/><use href="#stomp-l0" transform="translate(2.00 2.00)" fill="#556C7D"/><use href="#stomp-l0" transform="translate(1.00 1.00)" fill="#587081"/><use href="#stomp-l0" fill="#C6D2D6"/></g>
    <g transform="translate(-3.30 12.70) rotate(4.32 237.95 -543.33)"><use href="#stomp-l1" transform="translate(22.00 22.00)" fill="#1B2830"/><use href="#stomp-l1" transform="translate(21.00 21.00)" fill="#1E2B34"/><use href="#stomp-l1" transform="translate(20.00 20.00)" fill="#212F38"/><use href="#stomp-l1" transform="translate(19.00 19.00)" fill="#24323C"/><use href="#stomp-l1" transform="translate(18.00 18.00)" fill="#27363F"/><use href="#stomp-l1" transform="translate(17.00 17.00)" fill="#2A3943"/><use href="#stomp-l1" transform="translate(16.00 16.00)" fill="#2C3C47"/><use href="#stomp-l1" transform="translate(15.00 15.00)" fill="#2F404B"/><use href="#stomp-l1" transform="translate(14.00 14.00)" fill="#32434F"/><use href="#stomp-l1" transform="translate(13.00 13.00)" fill="#354753"/><use href="#stomp-l1" transform="translate(12.00 12.00)" fill="#384A57"/><use href="#stomp-l1" transform="translate(11.00 11.00)" fill="#3B4E5A"/><use href="#stomp-l1" transform="translate(10.00 10.00)" fill="#3E515E"/><use href="#stomp-l1" transform="translate(9.00 9.00)" fill="#415462"/><use href="#stomp-l1" transform="translate(8.00 8.00)" fill="#445866"/><use href="#stomp-l1" transform="translate(7.00 7.00)" fill="#475B6A"/><use href="#stomp-l1" transform="translate(6.00 6.00)" fill="#4A5F6E"/><use href="#stomp-l1" transform="translate(5.00 5.00)" fill="#4C6272"/><use href="#stomp-l1" transform="translate(4.00 4.00)" fill="#4F6576"/><use href="#stomp-l1" transform="translate(3.00 3.00)" fill="#526979"/><use href="#stomp-l1" transform="translate(2.00 2.00)" fill="#556C7D"/><use href="#stomp-l1" transform="translate(1.00 1.00)" fill="#587081"/><use href="#stomp-l1" fill="#C6D2D6"/></g>
    <g transform="translate(-6.65 -20.69) rotate(-6.94 390.85 -539.90)"><use href="#stomp-l2" transform="translate(22.00 22.00)" fill="#1B2830"/><use href="#stomp-l2" transform="translate(21.00 21.00)" fill="#1E2B34"/><use href="#stomp-l2" transform="translate(20.00 20.00)" fill="#212F38"/><use href="#stomp-l2" transform="translate(19.00 19.00)" fill="#24323C"/><use href="#stomp-l2" transform="translate(18.00 18.00)" fill="#27363F"/><use href="#stomp-l2" transform="translate(17.00 17.00)" fill="#2A3943"/><use href="#stomp-l2" transform="translate(16.00 16.00)" fill="#2C3C47"/><use href="#stomp-l2" transform="translate(15.00 15.00)" fill="#2F404B"/><use href="#stomp-l2" transform="translate(14.00 14.00)" fill="#32434F"/><use href="#stomp-l2" transform="translate(13.00 13.00)" fill="#354753"/><use href="#stomp-l2" transform="translate(12.00 12.00)" fill="#384A57"/><use href="#stomp-l2" transform="translate(11.00 11.00)" fill="#3B4E5A"/><use href="#stomp-l2" transform="translate(10.00 10.00)" fill="#3E515E"/><use href="#stomp-l2" transform="translate(9.00 9.00)" fill="#415462"/><use href="#stomp-l2" transform="translate(8.00 8.00)" fill="#445866"/><use href="#stomp-l2" transform="translate(7.00 7.00)" fill="#475B6A"/><use href="#stomp-l2" transform="translate(6.00 6.00)" fill="#4A5F6E"/><use href="#stomp-l2" transform="translate(5.00 5.00)" fill="#4C6272"/><use href="#stomp-l2" transform="translate(4.00 4.00)" fill="#4F6576"/><use href="#stomp-l2" transform="translate(3.00 3.00)" fill="#526979"/><use href="#stomp-l2" transform="translate(2.00 2.00)" fill="#556C7D"/><use href="#stomp-l2" transform="translate(1.00 1.00)" fill="#587081"/><use href="#stomp-l2" fill="#C6D2D6"/></g>
    <g transform="translate(4.00 17.92) rotate(5.99 554.03 -539.90)"><use href="#stomp-l3" transform="translate(22.00 22.00)" fill="#1B2830"/><use href="#stomp-l3" transform="translate(21.00 21.00)" fill="#1E2B34"/><use href="#stomp-l3" transform="translate(20.00 20.00)" fill="#212F38"/><use href="#stomp-l3" transform="translate(19.00 19.00)" fill="#24323C"/><use href="#stomp-l3" transform="translate(18.00 18.00)" fill="#27363F"/><use href="#stomp-l3" transform="translate(17.00 17.00)" fill="#2A3943"/><use href="#stomp-l3" transform="translate(16.00 16.00)" fill="#2C3C47"/><use href="#stomp-l3" transform="translate(15.00 15.00)" fill="#2F404B"/><use href="#stomp-l3" transform="translate(14.00 14.00)" fill="#32434F"/><use href="#stomp-l3" transform="translate(13.00 13.00)" fill="#354753"/><use href="#stomp-l3" transform="translate(12.00 12.00)" fill="#384A57"/><use href="#stomp-l3" transform="translate(11.00 11.00)" fill="#3B4E5A"/><use href="#stomp-l3" transform="translate(10.00 10.00)" fill="#3E515E"/><use href="#stomp-l3" transform="translate(9.00 9.00)" fill="#415462"/><use href="#stomp-l3" transform="translate(8.00 8.00)" fill="#445866"/><use href="#stomp-l3" transform="translate(7.00 7.00)" fill="#475B6A"/><use href="#stomp-l3" transform="translate(6.00 6.00)" fill="#4A5F6E"/><use href="#stomp-l3" transform="translate(5.00 5.00)" fill="#4C6272"/><use href="#stomp-l3" transform="translate(4.00 4.00)" fill="#4F6576"/><use href="#stomp-l3" transform="translate(3.00 3.00)" fill="#526979"/><use href="#stomp-l3" transform="translate(2.00 2.00)" fill="#556C7D"/><use href="#stomp-l3" transform="translate(1.00 1.00)" fill="#587081"/><use href="#stomp-l3" fill="#C6D2D6"/></g>
    <g transform="translate(0.66 -15.47) rotate(-5.27 747.90 -539.90)"><use href="#stomp-l4" transform="translate(22.00 22.00)" fill="#1B2830"/><use href="#stomp-l4" transform="translate(21.00 21.00)" fill="#1E2B34"/><use href="#stomp-l4" transform="translate(20.00 20.00)" fill="#212F38"/><use href="#stomp-l4" transform="translate(19.00 19.00)" fill="#24323C"/><use href="#stomp-l4" transform="translate(18.00 18.00)" fill="#27363F"/><use href="#stomp-l4" transform="translate(17.00 17.00)" fill="#2A3943"/><use href="#stomp-l4" transform="translate(16.00 16.00)" fill="#2C3C47"/><use href="#stomp-l4" transform="translate(15.00 15.00)" fill="#2F404B"/><use href="#stomp-l4" transform="translate(14.00 14.00)" fill="#32434F"/><use href="#stomp-l4" transform="translate(13.00 13.00)" fill="#354753"/><use href="#stomp-l4" transform="translate(12.00 12.00)" fill="#384A57"/><use href="#stomp-l4" transform="translate(11.00 11.00)" fill="#3B4E5A"/><use href="#stomp-l4" transform="translate(10.00 10.00)" fill="#3E515E"/><use href="#stomp-l4" transform="translate(9.00 9.00)" fill="#415462"/><use href="#stomp-l4" transform="translate(8.00 8.00)" fill="#445866"/><use href="#stomp-l4" transform="translate(7.00 7.00)" fill="#475B6A"/><use href="#stomp-l4" transform="translate(6.00 6.00)" fill="#4A5F6E"/><use href="#stomp-l4" transform="translate(5.00 5.00)" fill="#4C6272"/><use href="#stomp-l4" transform="translate(4.00 4.00)" fill="#4F6576"/><use href="#stomp-l4" transform="translate(3.00 3.00)" fill="#526979"/><use href="#stomp-l4" transform="translate(2.00 2.00)" fill="#556C7D"/><use href="#stomp-l4" transform="translate(1.00 1.00)" fill="#587081"/><use href="#stomp-l4" fill="#C6D2D6"/></g>
    <g transform="translate(-2.69 13.14) rotate(4.46 951.46 -539.90)"><use href="#stomp-l5" transform="translate(22.00 22.00)" fill="#1B2830"/><use href="#stomp-l5" transform="translate(21.00 21.00)" fill="#1E2B34"/><use href="#stomp-l5" transform="translate(20.00 20.00)" fill="#212F38"/><use href="#stomp-l5" transform="translate(19.00 19.00)" fill="#24323C"/><use href="#stomp-l5" transform="translate(18.00 18.00)" fill="#27363F"/><use href="#stomp-l5" transform="translate(17.00 17.00)" fill="#2A3943"/><use href="#stomp-l5" transform="translate(16.00 16.00)" fill="#2C3C47"/><use href="#stomp-l5" transform="translate(15.00 15.00)" fill="#2F404B"/><use href="#stomp-l5" transform="translate(14.00 14.00)" fill="#32434F"/><use href="#stomp-l5" transform="translate(13.00 13.00)" fill="#354753"/><use href="#stomp-l5" transform="translate(12.00 12.00)" fill="#384A57"/><use href="#stomp-l5" transform="translate(11.00 11.00)" fill="#3B4E5A"/><use href="#stomp-l5" transform="translate(10.00 10.00)" fill="#3E515E"/><use href="#stomp-l5" transform="translate(9.00 9.00)" fill="#415462"/><use href="#stomp-l5" transform="translate(8.00 8.00)" fill="#445866"/><use href="#stomp-l5" transform="translate(7.00 7.00)" fill="#475B6A"/><use href="#stomp-l5" transform="translate(6.00 6.00)" fill="#4A5F6E"/><use href="#stomp-l5" transform="translate(5.00 5.00)" fill="#4C6272"/><use href="#stomp-l5" transform="translate(4.00 4.00)" fill="#4F6576"/><use href="#stomp-l5" transform="translate(3.00 3.00)" fill="#526979"/><use href="#stomp-l5" transform="translate(2.00 2.00)" fill="#556C7D"/><use href="#stomp-l5" transform="translate(1.00 1.00)" fill="#587081"/><use href="#stomp-l5" fill="#C6D2D6"/></g>
    <g transform="translate(-6.03 -20.25) rotate(-6.80 1129.90 -539.90)"><use href="#stomp-l6" transform="translate(22.00 22.00)" fill="#1B2830"/><use href="#stomp-l6" transform="translate(21.00 21.00)" fill="#1E2B34"/><use href="#stomp-l6" transform="translate(20.00 20.00)" fill="#212F38"/><use href="#stomp-l6" transform="translate(19.00 19.00)" fill="#24323C"/><use href="#stomp-l6" transform="translate(18.00 18.00)" fill="#27363F"/><use href="#stomp-l6" transform="translate(17.00 17.00)" fill="#2A3943"/><use href="#stomp-l6" transform="translate(16.00 16.00)" fill="#2C3C47"/><use href="#stomp-l6" transform="translate(15.00 15.00)" fill="#2F404B"/><use href="#stomp-l6" transform="translate(14.00 14.00)" fill="#32434F"/><use href="#stomp-l6" transform="translate(13.00 13.00)" fill="#354753"/><use href="#stomp-l6" transform="translate(12.00 12.00)" fill="#384A57"/><use href="#stomp-l6" transform="translate(11.00 11.00)" fill="#3B4E5A"/><use href="#stomp-l6" transform="translate(10.00 10.00)" fill="#3E515E"/><use href="#stomp-l6" transform="translate(9.00 9.00)" fill="#415462"/><use href="#stomp-l6" transform="translate(8.00 8.00)" fill="#445866"/><use href="#stomp-l6" transform="translate(7.00 7.00)" fill="#475B6A"/><use href="#stomp-l6" transform="translate(6.00 6.00)" fill="#4A5F6E"/><use href="#stomp-l6" transform="translate(5.00 5.00)" fill="#4C6272"/><use href="#stomp-l6" transform="translate(4.00 4.00)" fill="#4F6576"/><use href="#stomp-l6" transform="translate(3.00 3.00)" fill="#526979"/><use href="#stomp-l6" transform="translate(2.00 2.00)" fill="#556C7D"/><use href="#stomp-l6" transform="translate(1.00 1.00)" fill="#587081"/><use href="#stomp-l6" fill="#C6D2D6"/></g>
</svg>